<svg width="120" height="120" viewBox="0 0 120 120" fill="none" xmlns="http://www.w3.org/2000/svg">
<path d="M0 14.956C0 11.069 3.0526 7.91789 6.81818 7.91789H113.182C116.947 7.91789 120 11.069 120 14.956C120 18.8431 116.947 21.9941 113.182 21.9941H6.81818C3.0526 21.9941 0 18.8431 0 14.956Z" fill="#86868A"/>
<path d="M0 14.956C0 11.069 3.0526 7.91789 6.81818 7.91789H47.3864C51.1519 7.91789 54.2045 11.069 54.2045 14.956C54.2045 18.8431 51.1519 21.9941 47.3864 21.9941H6.81818C3.0526 21.9941 0 18.8431 0 14.956Z" fill="#FF9500"/>
<path d="M0 60C0 56.113 3.0526 52.9619 6.81818 52.9619H113.182C116.947 52.9619 120 56.113 120 60C120 63.887 116.947 67.0381 113.182 67.0381H6.81818C3.0526 67.0381 0 63.887 0 60Z" fill="#86868A"/>
<path d="M0 60C0 56.113 3.0526 52.9619 6.81818 52.9619H64.0909C67.8565 52.9619 70.9091 56.113 70.9091 60C70.9091 63.887 67.8565 67.0381 64.0909 67.0381H6.81818C3.0526 67.0381 0 63.887 0 60Z" fill="#FF2D55"/>
<path d="M0 105.044C0 101.157 3.0526 98.0059 6.81818 98.0059H113.182C116.947 98.0059 120 101.157 120 105.044C120 108.931 116.947 112.082 113.182 112.082H6.81818C3.0526 112.082 0 108.931 0 105.044Z" fill="#86868A"/>
<path d="M0 105.044C0 101.157 3.0526 98.0059 6.81818 98.0059H73.2955C77.061 98.0059 80.1136 101.157 80.1136 105.044C80.1136 108.931 77.061 112.082 73.2955 112.082H6.81818C3.0526 112.082 0 108.931 0 105.044Z" fill="#34C759"/>
<path d="M74.4886 60C74.4886 68.26 68.0019 74.956 60 74.956C51.9981 74.956 45.5114 68.26 45.5114 60C45.5114 51.74 51.9981 45.044 60 45.044C68.0019 45.044 74.4886 51.74 74.4886 60Z" fill="#EBEDF0"/>
<path d="M60 14.956C60 23.216 53.5132 29.912 45.5114 29.912C37.5095 29.912 31.0227 23.216 31.0227 14.956C31.0227 6.69603 37.5095 0 45.5114 0C53.5132 0 60 6.69603 60 14.956Z" fill="#EBEDF0"/>
<path d="M88.9773 105.044C88.9773 113.304 82.4905 120 74.4886 120C66.4868 120 60 113.304 60 105.044C60 96.784 66.4868 90.088 74.4886 90.088C82.4905 90.088 88.9773 96.784 88.9773 105.044Z" fill="#EBEDF0"/>
</svg>
